<?xml version="1.0" encoding="UTF-8"?>
<!DOCTYPE svg PUBLIC "-//W3C//DTD SVG 1.1//EN" "http://www.w3.org/Graphics/SVG/1.1/DTD/svg11.dtd">
<!-- Creator: CorelDRAW X6 -->
<svg xmlns="http://www.w3.org/2000/svg" xml:space="preserve" width="4.52778in" height="1.41666in" version="1.1" style="shape-rendering:geometricPrecision; text-rendering:geometricPrecision; image-rendering:optimizeQuality; fill-rule:evenodd; clip-rule:evenodd"
viewBox="0 0 4528 1417"
 xmlns:xlink="http://www.w3.org/1999/xlink">
 <defs>
  <style type="text/css">
   <![CDATA[
    .fil0 {fill:#0086C5}
    .fil3 {fill:#373435}
    .fil1 {fill:#0086C5;fill-rule:nonzero}
    .fil2 {fill:#ffffff;fill-rule:nonzero}
   ]]>
  </style>
 </defs>
 <g id="Layer_x0020_1">
  <metadata id="CorelCorpID_0Corel-Layer"/>
  <path class="fil0" d="M2779 631c0,4 0,8 0,12 3,85 35,129 97,129 49,0 89,-31 116,-87 13,-27 24,-66 31,-107l355 -77c-14,139 -54,274 -115,375 -90,152 -216,216 -423,216 -115,0 -195,-16 -254,-53 -90,-55 -143,-172 -151,-333l344 -75zm153 -267c-59,0 -97,29 -123,91 -12,29 -21,62 -25,97l-349 48c10,-200 74,-385 171,-480 80,-82 200,-118 381,-118 259,0 386,116 396,361 1,36 1,72 -2,108l-349 48c1,-18 2,-35 1,-50 -3,-71 -36,-103 -101,-103z"/>
  <path class="fil1" d="M1028 42l-83 511 -225 38 -3 10 224 -19 -5 28c-33,200 -66,285 -144,356 -91,83 -221,126 -383,126 -244,0 -397,-99 -404,-263 -2,-61 6,-157 24,-265l84 -522 384 0 -100 612c-11,76 -11,78 -10,97 1,36 25,60 59,60 32,0 59,-16 70,-42 8,-20 11,-32 30,-121l97 -606 385 0z"/>
  <path class="fil0" d="M1941 497c-2,12 -4,23 -6,35l-84 523 -384 0 86 -525 388 -33zm-922 44l9 -56c33,-201 66,-286 144,-357 91,-83 221,-127 384,-127 245,0 397,100 404,264 1,31 0,71 -4,117l-389 66 1 -7c11,-76 11,-78 10,-98 -1,-36 -25,-60 -59,-60 -32,0 -59,16 -70,42 -8,20 -11,33 -30,121l-4 27 -395 67zm-84 514l78 -479 390 -33 -82 513 -386 0z"/>
  <path class="fil1" d="M3344 1055l92 -567 228 -49 3 -9 -227 31c32,-184 65,-265 140,-333 91,-83 221,-127 384,-127 244,0 397,100 404,264 2,62 -6,157 -24,266l-84 523 -384 0 100 -614c11,-76 11,-78 10,-98 -1,-36 -25,-60 -59,-60 -32,0 -59,16 -70,42 -8,20 -11,33 -30,121l-97 608 -386 0z"/>
  <path class="fil0" d="M2360 722l-53 334 -386 0 89 -564 141 -12 -63 302 272 -59zm111 -694l-92 579 -143 20 61 -301 -267 45 54 -343 388 0z"/>
  <polygon class="fil2" points="86,1194 87,1194 108,1411 137,1411 251,1194 252,1194 206,1411 237,1411 288,1167 237,1167 132,1372 131,1372 113,1167 63,1167 11,1411 40,1411 "/>
  <path class="fil2" d="M747 1411l31 0 31 -58 94 0 5 58 35 0 -28 -244 -39 0 -129 244zm153 -85l-78 0 66 -130 1 0 12 130z"/>
  <path class="fil2" d="M1630 1234c13,-47 0,-72 -48,-72 -48,0 -82,20 -97,88l-15 69c-20,94 26,96 56,96 16,0 70,0 85,-77l-32 0c-10,48 -40,51 -49,51 -24,0 -42,-7 -29,-67l14 -65c9,-42 16,-48 18,-51 2,-3 15,-19 41,-19 6,0 20,3 25,10 5,8 3,22 0,35l32 0z"/>
  <polygon class="fil2" points="2152,1411 2175,1300 2261,1300 2237,1411 2268,1411 2320,1167 2289,1167 2266,1273 2181,1273 2203,1167 2172,1167 2121,1411 "/>
  <polygon class="fil2" points="2889,1167 2858,1167 2806,1411 2837,1411 "/>
  <polygon class="fil2" points="3567,1167 3522,1376 3522,1376 3471,1167 3427,1167 3375,1411 3403,1411 3448,1200 3449,1200 3500,1411 3542,1411 3594,1167 "/>
  <polygon class="fil2" points="4204,1411 4210,1384 4113,1384 4131,1300 4219,1300 4225,1273 4137,1273 4154,1194 4248,1194 4254,1167 4128,1167 4077,1411 "/>
  <polygon class="fil2" points="4382,125 4393,125 4393,51 4421,51 4421,41 4354,41 4354,51 4382,51 "/>
  <polygon class="fil2" points="4510,125 4521,125 4521,41 4502,41 4478,110 4478,110 4454,41 4433,41 4433,125 4445,125 4445,50 4445,50 4472,125 4483,125 4509,50 4510,50 "/>
 </g>
</svg>
